HIERARCHY
ROOT Hips
{
	OFFSET 0.000000 100.481300 0.000000
	CHANNELS 6 Xposition Yposition Zposition Xrotation Yrotation Zrotation 
	JOINT Spine
	{
		OFFSET -0.279200 12.230698 -2.892100
		CHANNELS 3 Xrotation Yrotation Zrotation
		JOINT Spine1
		{
			OFFSET -0.232667 10.192268 -1.242267
			CHANNELS 3 Xrotation Yrotation Zrotation
			JOINT Spine1_split
			{
				OFFSET -0.232667 10.192268 -1.242267
				CHANNELS 3 Xrotation Yrotation Zrotation
				JOINT Spine2
				{
					OFFSET -0.232667 10.192268 -1.242267
					CHANNELS 3 Xrotation Yrotation Zrotation
					JOINT Neck
					{
						OFFSET -0.418800 17.814194 8.416900
						CHANNELS 3 Xrotation Yrotation Zrotation
						JOINT Head
						{
							OFFSET 0.000000 7.031097 3.806800
							CHANNELS 3 Xrotation Yrotation Zrotation
							JOINT HeadTop_End
							{
								OFFSET 0.000000 24.646606 12.978600
								CHANNELS 3 Xrotation Yrotation Zrotation
								End Site
								{
									OFFSET 0.000000 0.000000 0.000000
								}
							}
						}
					}
					JOINT LeftShoulder
					{
						OFFSET 8.476499 7.247704 -3.868750
						CHANNELS 3 Xrotation Yrotation Zrotation
						JOINT LeftShoulder_split
						{
							OFFSET 8.476499 7.247704 -3.868750
							CHANNELS 3 Xrotation Yrotation Zrotation
							JOINT LeftArm
							{
								OFFSET 9.308998 -2.777710 0.208600
								CHANNELS 3 Xrotation Yrotation Zrotation
								JOINT LeftForeArm
								{
									OFFSET 29.972298 0.000000 0.000000
									CHANNELS 3 Xrotation Yrotation Zrotation
									JOINT LeftHand
									{
										OFFSET 26.026505 0.000000 0.000000
										CHANNELS 3 Xrotation Yrotation Zrotation
										JOINT LeftHandThumb1
										{
											OFFSET 12.240501 -7.147949 9.207150
											CHANNELS 3 Xrotation Yrotation Zrotation
											JOINT LeftHandThumb2
											{
												OFFSET 4.138618 -2.389435 2.389433
												CHANNELS 3 Xrotation Yrotation Zrotation
												JOINT LeftHandThumb3
												{
													OFFSET 2.726913 -1.574387 1.574386
													CHANNELS 3 Xrotation Yrotation Zrotation
													JOINT LeftHandThumb4
													{
														OFFSET 3.941010 -2.275345 2.275342
														CHANNELS 3 Xrotation Yrotation Zrotation
														End Site
														{
															OFFSET 0.000000 0.000000 0.000000
														}
													}
												}
											}
										}
										JOINT LeftHandIndex1
										{
											OFFSET 24.424698 -1.985611 5.953459
											CHANNELS 3 Xrotation Yrotation Zrotation
											JOINT LeftHandIndex2
											{
												OFFSET 6.426697 0.000000 0.000000
												CHANNELS 3 Xrotation Yrotation Zrotation
												JOINT LeftHandIndex3
												{
													OFFSET 5.337898 0.000000 0.000000
													CHANNELS 3 Xrotation Yrotation Zrotation
													JOINT LeftHandIndex4
													{
														OFFSET 4.409401 0.000000 0.000000
														CHANNELS 3 Xrotation Yrotation Zrotation
														End Site
														{
															OFFSET 0.000000 0.000000 0.000000
														}
													}
												}
											}
										}
										JOINT LeftHandMiddle1
										{
											OFFSET 23.810104 0.000000 0.000000
											CHANNELS 3 Xrotation Yrotation Zrotation
											JOINT LeftHandMiddle2
											{
												OFFSET 7.176498 0.000000 0.000000
												CHANNELS 3 Xrotation Yrotation Zrotation
												JOINT LeftHandMiddle3
												{
													OFFSET 6.774902 0.000000 0.000000
													CHANNELS 3 Xrotation Yrotation Zrotation
													JOINT LeftHandMiddle4
													{
														OFFSET 5.403328 0.000000 0.000000
														CHANNELS 3 Xrotation Yrotation Zrotation
														End Site
														{
															OFFSET 0.000000 0.000000 0.000000
														}
													}
												}
											}
										}
										JOINT LeftHandRing1
										{
											OFFSET 22.908401 -0.839279 -6.020567
											CHANNELS 3 Xrotation Yrotation Zrotation
											JOINT LeftHandRing2
											{
												OFFSET 6.337502 0.000000 0.000000
												CHANNELS 3 Xrotation Yrotation Zrotation
												JOINT LeftHandRing3
												{
													OFFSET 5.779297 0.000000 0.000000
													CHANNELS 3 Xrotation Yrotation Zrotation
													JOINT LeftHandRing4
													{
														OFFSET 4.965698 0.000000 0.000000
														CHANNELS 3 Xrotation Yrotation Zrotation
														End Site
														{
															OFFSET 0.000000 0.000000 0.000000
														}
													}
												}
											}
										}
										JOINT LeftHandPinky1
										{
											OFFSET 20.037003 -1.530319 -10.950146
											CHANNELS 3 Xrotation Yrotation Zrotation
											JOINT LeftHandPinky2
											{
												OFFSET 5.254700 0.000000 0.000000
												CHANNELS 3 Xrotation Yrotation Zrotation
												JOINT LeftHandPinky3
												{
													OFFSET 4.810204 0.000000 0.000000
													CHANNELS 3 Xrotation Yrotation Zrotation
													JOINT LeftHandPinky4
													{
														OFFSET 3.647202 0.000000 0.000000
														CHANNELS 3 Xrotation Yrotation Zrotation
														End Site
														{
															OFFSET 0.000000 0.000000 0.000000
														}
													}
												}
											}
										}
									}
								}
							}
						}
					}
					JOINT RightShoulder
					{
						OFFSET -7.570500 7.247704 -3.868750
						CHANNELS 3 Xrotation Yrotation Zrotation
						JOINT RightShoulder_split
						{
							OFFSET -7.570500 7.247704 -3.868750
							CHANNELS 3 Xrotation Yrotation Zrotation
							JOINT RightArm
							{
								OFFSET -9.308998 -2.777710 0.208500
								CHANNELS 3 Xrotation Yrotation Zrotation
								JOINT RightForeArm
								{
									OFFSET -29.972300 0.000000 0.000000
									CHANNELS 3 Xrotation Yrotation Zrotation
									JOINT RightHand
									{
										OFFSET -26.026505 0.000000 0.000000
										CHANNELS 3 Xrotation Yrotation Zrotation
										JOINT RightHandThumb1
										{
											OFFSET -12.240601 -7.148026 9.207092
											CHANNELS 3 Xrotation Yrotation Zrotation
											JOINT RightHandThumb2
											{
												OFFSET -4.138618 -2.389435 2.389433
												CHANNELS 3 Xrotation Yrotation Zrotation
												JOINT RightHandThumb3
												{
													OFFSET -2.726974 -1.574417 1.574421
													CHANNELS 3 Xrotation Yrotation Zrotation
													JOINT RightHandThumb4
													{
														OFFSET -3.941010 -2.275345 2.275343
														CHANNELS 3 Xrotation Yrotation Zrotation
														End Site
														{
															OFFSET 0.000000 0.000000 0.000000
														}
													}
												}
											}
										}
										JOINT RightHandIndex1
										{
											OFFSET -24.424698 -1.985657 5.953444
											CHANNELS 3 Xrotation Yrotation Zrotation
											JOINT RightHandIndex2
											{
												OFFSET -6.426697 0.000000 0.000000
												CHANNELS 3 Xrotation Yrotation Zrotation
												JOINT RightHandIndex3
												{
													OFFSET -5.337898 0.000000 0.000000
													CHANNELS 3 Xrotation Yrotation Zrotation
													JOINT RightHandIndex4
													{
														OFFSET -4.409401 0.000000 0.000000
														CHANNELS 3 Xrotation Yrotation Zrotation
														End Site
														{
															OFFSET 0.000000 0.000000 0.000000
														}
													}
												}
											}
										}
										JOINT RightHandMiddle1
										{
											OFFSET -23.810097 0.000000 0.000000
											CHANNELS 3 Xrotation Yrotation Zrotation
											JOINT RightHandMiddle2
											{
												OFFSET -7.176498 0.000000 0.000000
												CHANNELS 3 Xrotation Yrotation Zrotation
												JOINT RightHandMiddle3
												{
													OFFSET -6.774902 0.000000 0.000000
													CHANNELS 3 Xrotation Yrotation Zrotation
													JOINT RightHandMiddle4
													{
														OFFSET -5.403328 0.000000 0.000000
														CHANNELS 3 Xrotation Yrotation Zrotation
														End Site
														{
															OFFSET 0.000000 0.000000 0.000000
														}
													}
												}
											}
										}
										JOINT RightHandRing1
										{
											OFFSET -22.908302 -0.839325 -6.020576
											CHANNELS 3 Xrotation Yrotation Zrotation
											JOINT RightHandRing2
											{
												OFFSET -6.337502 0.000000 0.000000
												CHANNELS 3 Xrotation Yrotation Zrotation
												JOINT RightHandRing3
												{
													OFFSET -5.779297 0.000000 0.000000
													CHANNELS 3 Xrotation Yrotation Zrotation
													JOINT RightHandRing4
													{
														OFFSET -4.965698 0.000000 0.000000
														CHANNELS 3 Xrotation Yrotation Zrotation
														End Site
														{
															OFFSET 0.000000 0.000000 0.000000
														}
													}
												}
											}
										}
										JOINT RightHandPinky1
										{
											OFFSET -20.037003 -1.530334 -10.950259
											CHANNELS 3 Xrotation Yrotation Zrotation
											JOINT RightHandPinky2
											{
												OFFSET -5.254700 0.000000 0.000000
												CHANNELS 3 Xrotation Yrotation Zrotation
												JOINT RightHandPinky3
												{
													OFFSET -4.810204 0.000000 0.000000
													CHANNELS 3 Xrotation Yrotation Zrotation
													JOINT RightHandPinky4
													{
														OFFSET -3.647202 0.000000 0.000000
														CHANNELS 3 Xrotation Yrotation Zrotation
														End Site
														{
															OFFSET 0.000000 0.000000 0.000000
														}
													}
												}
											}
										}
									}
								}
							}
						}
					}
				}
			}
		}
	}
	JOINT LeftUpLeg
	{
		OFFSET 15.427100 -6.655098 0.678600
		CHANNELS 3 Xrotation Yrotation Zrotation
		JOINT LeftLeg
		{
			OFFSET 4.081073 -39.591068 13.024000
			CHANNELS 3 Xrotation Yrotation Zrotation
			JOINT LeftFoot
			{
				OFFSET -4.081074 -37.707932 -15.979700
				CHANNELS 3 Xrotation Yrotation Zrotation
				JOINT LeftToeBase
				{
					OFFSET 5.346399 -15.068900 20.645000
					CHANNELS 3 Xrotation Yrotation Zrotation
					JOINT LeftToe_End
					{
						OFFSET 2.754700 0.931300 11.300900
						CHANNELS 3 Xrotation Yrotation Zrotation
						End Site
						{
							OFFSET 0.000000 0.000000 0.000000
						}
					}
				}
			}
		}
	}
	JOINT RightUpLeg
	{
		OFFSET -15.569500 -6.655098 0.678600
		CHANNELS 3 Xrotation Yrotation Zrotation
		JOINT RightLeg
		{
			OFFSET -4.081825 -39.591045 13.023800
			CHANNELS 3 Xrotation Yrotation Zrotation
			JOINT RightFoot
			{
				OFFSET 4.081824 -37.707954 -15.979600
				CHANNELS 3 Xrotation Yrotation Zrotation
				JOINT RightToeBase
				{
					OFFSET -5.346400 -15.068900 20.645000
					CHANNELS 3 Xrotation Yrotation Zrotation
					JOINT RightToe_End
					{
						OFFSET -2.754700 0.931300 11.300900
						CHANNELS 3 Xrotation Yrotation Zrotation
						End Site
						{
							OFFSET 0.000000 0.000000 0.000000
						}
					}
				}
			}
		}
	}
}
MOTION
Frames: 4
Frame Time: 0.016667
116.746117 85.584175 207.279938 -100.673375 -65.929945 -184.931142 11.485965 2.278622 4.103410 4.854283 11.245303 9.491958 0.000000 0.000000 0.000000 -0.264522 4.650244 6.859579 17.054953 5.940621 9.977810 17.218034 33.848123 -18.256816 0.000001 0.000002 0.000001 0.094775 -6.199200 -0.123042 0.000000 0.000000 0.000000 9.665289 -8.508386 -0.913042 0.000002 -16.045868 0.000010 35.770459 4.134772 2.795903 -21.849372 -26.533902 3.214725 14.707537 16.467047 -15.962733 -7.335813 -0.421714 13.147344 0.000000 0.000001 0.000000 -1.323892 -11.050857 -6.554823 0.019604 0.479404 -4.683522 0.036127 0.650304 -6.359165 0.000000 0.000000 -0.000000 -0.648682 1.485335 -20.430349 0.000900 0.102838 -1.003613 0.153301 1.332797 -13.122642 0.000000 0.000001 0.000001 5.314366 12.518969 -31.340815 0.021988 0.507673 -4.960389 0.032845 -0.620146 6.063190 0.000003 0.000002 0.000001 2.322017 20.828216 -37.538122 0.232405 1.635307 -16.176147 0.084481 0.992447 -9.732255 -0.000000 0.000000 -0.000000 0.702719 0.170124 17.086864 0.000000 0.000000 0.000000 -42.474330 9.627239 15.642590 -179.999991 158.675458 180.000005 54.171036 3.808806 -28.436347 -17.608783 2.987681 1.533008 -5.026839 -26.669273 -12.857306 -13.642572 -18.946480 -16.527782 0.000001 0.000001 0.000001 0.237647 -2.716279 11.266507 0.242384 -1.484324 18.547377 0.212849 -1.393250 17.371374 0.000004 0.000000 -0.000002 2.290404 -8.097842 24.945365 0.422940 -1.940984 24.583196 0.670463 -2.409300 31.097602 -0.000001 -0.000001 0.000000 5.299366 -10.956002 36.062842 0.774633 -2.573983 33.493742 0.902484 -2.757255 36.241892 0.000002 0.000001 -0.000000 6.881469 -15.240333 43.779091 0.835663 -2.663808 34.829061 1.387683 -3.318386 45.378257 0.000001 -0.000003 0.000001 -56.411769 8.865937 39.555613 86.793693 -9.632355 -14.370499 14.256070 -10.087692 -10.912143 0.669963 -0.000010 0.000002 -0.000002 -0.000001 -0.000000 -58.186798 21.893888 -56.824951 59.727115 9.278383 0.220759 7.624397 0.183271 25.520993 8.592771 0.000002 -0.000013 -0.000000 0.000000 0.000000 
119.923042 82.079346 211.754395 -99.964388 -65.188910 -185.775900 11.585327 2.173274 3.746050 5.544254 11.383309 9.197805 0.000000 0.000000 0.000000 -0.042808 4.627744 6.563428 15.374957 5.803014 9.269355 18.722392 32.861427 -18.303623 0.000001 -0.000003 -0.000004 0.193430 -6.244331 -0.490221 0.000000 0.000000 0.000000 8.939511 -6.671605 0.394171 0.000006 -17.704883 -0.000007 40.311797 8.263367 4.360200 -22.662718 -26.776597 3.864302 11.870355 19.263027 -11.470778 -8.295398 -0.172142 12.732442 -0.000002 0.000003 -0.000002 0.130000 -11.645900 -0.445212 0.021087 0.497166 -4.857435 0.031996 0.612114 -5.984345 0.000000 0.000000 -0.000001 -0.475359 0.547746 -12.557665 0.000928 0.104599 -1.020728 0.142485 1.285517 -12.649031 -0.000000 0.000000 0.000001 3.960302 12.243257 -23.933488 0.023678 0.526790 -5.147705 0.042393 -0.704330 6.890086 0.000001 0.000001 0.000001 1.720357 20.343985 -29.864896 0.251795 1.700711 -16.842466 0.075887 0.940857 -9.221709 -0.000003 -0.000001 -0.000000 0.757833 0.219486 18.065760 0.000000 0.000000 0.000000 -42.841071 9.112750 16.864213 -179.999991 155.089226 180.000005 54.071387 4.622372 -27.029941 -17.424511 3.155039 1.313337 -4.888476 -26.946237 -12.345310 -13.541691 -19.793866 -16.673199 -0.000000 0.000000 0.000001 0.256207 -2.735454 12.032150 0.266313 -1.553845 19.450473 0.230189 -1.447486 18.070584 -0.000003 0.000001 0.000001 2.288256 -8.009702 25.439342 0.480170 -2.061434 26.221882 0.731942 -2.508326 32.530880 -0.000001 0.000001 -0.000001 5.282044 -10.807348 36.655658 0.848276 -2.681829 35.099584 0.999120 -2.884296 38.205237 -0.000001 -0.000002 0.000000 6.682581 -15.123043 43.637863 0.926480 -2.789656 36.737699 1.438071 -3.367280 46.242385 -0.000000 -0.000001 0.000001 -56.439567 8.712125 38.150237 87.433702 -9.374209 -14.028971 13.584076 -9.950424 -10.163229 0.269119 0.000010 -0.000033 -0.000001 -0.000000 0.000001 -59.273536 21.212155 -56.144339 56.972134 8.680193 -0.444321 11.085367 1.068604 27.639660 7.909306 0.000001 -0.000013 0.000000 -0.000002 0.000001 
123.103302 78.095764 216.503265 -98.899869 -65.619021 -186.447594 11.694240 1.987378 3.798537 5.957488 11.339464 9.012866 0.000000 0.000000 0.000000 0.073766 4.191053 6.295738 13.799723 5.635492 8.568037 19.962058 31.780696 -18.252618 -0.000000 0.000002 -0.000003 0.268095 -6.237661 -0.973499 0.000000 0.000000 0.000000 7.893503 -4.110882 1.992691 0.000000 -21.678771 0.000004 45.854212 11.612322 6.910724 -24.357807 -27.217455 5.367381 4.744749 23.727331 -0.421143 -10.448898 0.439151 11.817496 0.000000 0.000001 -0.000001 2.172455 -12.057191 7.954021 0.022639 0.515076 -5.032876 0.037605 0.663455 -6.488380 -0.000000 0.000000 -0.000001 0.020045 -0.647349 -0.983330 0.000962 0.106398 -1.038282 0.156804 1.347708 -13.272144 -0.000000 -0.000000 -0.000001 1.956666 11.211962 -12.644202 0.025455 0.546069 -5.336631 0.027756 -0.570264 5.573897 -0.000000 0.000000 -0.000001 0.969390 19.372254 -18.258788 0.272113 1.766395 -17.513918 0.088843 1.017490 -9.980431 -0.000001 0.000000 -0.000000 0.787623 0.240706 18.556507 0.000000 0.000000 0.000000 -42.487916 7.719425 18.634645 -180.000019 150.868729 180.000005 53.659602 5.152974 -25.209967 -17.240933 3.321308 1.092001 -4.748452 -27.220693 -11.832485 -13.444492 -20.639766 -16.817382 -0.000001 0.000000 -0.000000 0.274447 -2.754145 12.796016 0.291303 -1.622804 20.351549 0.248134 -1.501357 18.768197 -0.000000 -0.000001 0.000000 2.284441 -7.922225 25.932003 0.540682 -2.179893 27.857046 0.795763 -2.605590 33.961060 0.000001 0.000000 0.000001 5.261771 -10.660295 37.246821 0.924736 -2.787324 36.701974 1.099805 -3.007659 40.164460 0.000002 -0.000003 -0.000002 6.484868 -15.005205 43.497588 1.021201 -2.912115 38.642318 1.489087 -3.415325 47.104611 -0.000000 -0.000000 0.000003 -56.406752 8.030257 35.374998 88.325595 -8.774089 -12.991319 12.678629 -8.694809 -9.429993 0.402789 -0.000001 -0.000022 -0.000001 -0.000000 -0.000001 -59.626226 19.659313 -56.500090 53.941928 8.136167 -1.177145 13.990476 2.216015 29.510129 7.955825 0.000002 0.000003 0.000001 -0.000003 0.000002 
126.513245 73.738258 221.355469 -98.773258 -65.377143 -188.660740 11.821868 1.757372 4.123493 6.189669 11.236924 8.879462 0.000000 0.000000 0.000000 0.150937 3.491581 6.062956 12.506460 5.434262 7.875170 20.393693 30.654914 -18.008851 0.000003 0.000004 0.000001 0.299028 -6.173945 -1.669663 0.000000 0.000000 0.000000 6.360269 2.416615 3.605604 0.000007 -28.398082 0.000003 50.134504 13.536598 11.094398 -26.147714 -27.717024 6.953352 -3.260739 25.444454 12.144143 -12.718417 1.160016 10.880826 -0.000002 0.000000 0.000000 4.001849 -11.998684 15.702204 0.024254 0.533130 -5.209775 0.051285 0.774322 -7.578628 0.000000 0.000000 -0.000002 0.680424 -1.545817 10.206248 0.000996 0.108237 -1.056273 0.190117 1.481811 -14.621338 -0.000002 -0.000001 0.000002 0.308131 9.635000 -1.589511 0.027300 0.565506 -5.527085 0.007189 -0.290489 2.835930 -0.000001 -0.000003 0.000002 0.405212 18.245682 -6.886048 0.293346 1.832263 -18.189892 0.119497 1.178438 -11.579910 -0.000002 0.000000 0.000001 1.035438 0.349701 19.024070 0.000000 0.000000 0.000000 -41.972937 5.617788 20.313737 -179.999991 145.450449 179.999991 53.342193 5.393190 -23.168627 -17.059699 3.485419 0.870125 -4.607760 -27.490758 -11.322422 -13.352644 -21.478401 -16.959390 -0.000003 0.000001 0.000000 0.292216 -2.772297 13.552770 0.317110 -1.690748 21.244356 0.266569 -1.554537 19.459390 -0.000001 -0.000001 -0.000001 2.278995 -7.836073 26.419944 0.603958 -2.295550 29.477324 0.861357 -2.700309 35.378174 -0.000003 0.000000 -0.000001 5.238755 -10.515966 37.832230 1.003368 -2.889680 38.289805 1.203700 -3.126436 42.105978 -0.000001 0.000002 -0.000000 6.289595 -14.887700 43.359216 1.119043 -3.030269 40.529697 1.540336 -3.462142 47.958908 -0.000001 -0.000000 -0.000001 -56.921475 6.166444 33.626633 89.313630 -8.689716 -12.080048 13.111213 -8.329627 -8.946600 0.779512 -0.000001 -0.000015 0.000000 -0.000000 0.000001 -61.955539 19.543657 -55.274047 53.279020 8.535307 -2.983390 16.063095 3.191993 31.870680 5.824830 0.000000 -0.000004 -0.000000 0.000000 -0.000000 
